<?xml version="1.0" encoding="UTF-8"?>
<svg id="Layer_1" data-name="Layer 1" xmlns="http://www.w3.org/2000/svg" xmlns:xlink="http://www.w3.org/1999/xlink" viewBox="0 0 88.65 58.52">
  <defs>
    <style>
      .cls-1 {
        fill: none;
      }

      .cls-2 {
        clip-path: url(#clippath);
      }

      .cls-3 {
        fill: #fff;
      }
    </style>
    <clipPath id="clippath">
      <rect class="cls-1" x="-104.53" y="-34.24" width="289.06" height="129.51"/>
    </clipPath>
  </defs>
  <g id="Artwork_1" data-name="Artwork 1">
    <g class="cls-2">
      <g>
        <path class="cls-3" d="m57.25,34.36c1.02-.98.15-2.5.15-2.5,0,0-1.04,1.38-.15,2.5"/>
        <path class="cls-3" d="m61.21,39.13c1.66-.97.94-3.32.94-3.32,0,0-1.81,1.49-.94,3.32"/>
        <path class="cls-3" d="m65.04,37.6c1.8.59,2.77-1.66,2.77-1.66,0,0-2.24-.33-2.77,1.66"/>
        <path class="cls-3" d="m60.9,42.99c.56,1.98,2.8,1.61,2.8,1.61,0,0-1.01-2.23-2.8-1.61"/>
        <path class="cls-3" d="m51.04,43.87c.56,1.98,2.8,1.61,2.8,1.61,0,0-1.01-2.23-2.8-1.61"/>
        <path class="cls-3" d="m53.6,37.44c.51-.49.08-1.25.08-1.25,0,0-.52.69-.08,1.25"/>
        <path class="cls-3" d="m61.2,31.66s-.8-.16-1.02.55c.64.24,1.02-.55,1.02-.55"/>
        <path class="cls-3" d="m68.74,32.09c1.13.43,1.8-.97,1.8-.97,0,0-1.41-.28-1.8.97"/>
        <path class="cls-3" d="m68.64,30.38c-.26.56-.53,1.11-.82,1.64-.57,1.08-1.21,2.12-1.91,3.1-.7.98-1.46,1.91-2.28,2.76-.83.85-1.72,1.62-2.67,2.28-.95.66-1.97,1.2-3.03,1.6-1.06.39-2.16.66-3.28.76-1.11.11-2.24.06-3.34-.1-.28-.05-.56-.09-.83-.15l-.26-.05h0s.08-.05.12-.08c.26-.18.53-.36.79-.54.52-.37,1.02-.75,1.52-1.16,1-.8,1.95-1.66,2.85-2.59.45-.47.88-.95,1.3-1.45.41-.51.81-1.03,1.18-1.57.37-.54.71-1.11,1.01-1.7.3-.59.56-1.2.79-1.83-.25.62-.54,1.21-.86,1.78-.33.56-.69,1.11-1.07,1.63-.39.52-.8,1.01-1.23,1.49-.43.47-.88.92-1.34,1.36-.26.24-.53.48-.79.72.02-.06.04-.12.06-.17.1-.32.19-.63.27-.96.15-.64.27-1.3.32-1.97.01-.17.02-.33.03-.5,0-.17,0-.33,0-.5,0-.17-.01-.33-.02-.5-.02-.17-.03-.33-.05-.5-.08-.66-.26-1.3-.5-1.9.22.61.36,1.26.41,1.91.02.16.02.33.03.49,0,.17,0,.33,0,.49,0,.17-.01.33-.02.49-.01.16-.03.33-.05.49-.08.65-.21,1.28-.39,1.91-.09.31-.19.62-.3.92-.06.15-.11.3-.18.45-.04.1-.08.2-.13.3-.52.43-1.05.85-1.59,1.24-.51.37-1.02.72-1.54,1.06-.26.17-.53.34-.79.49-.13.08-.26.16-.4.23-.13.07-.26.15-.39.22l-.41-.1-.42-.11c-.14-.03-.28-.07-.42-.1l-.84-.18c-.14-.03-.28-.06-.42-.09l-.42-.08-.84-.16h-.02l-.32-.39-.22-.34h-.79l-.71-.41-2.33-2.61h0s-.52-.64-.52-.64l.59.32.15-.67.38-1.35h.6l.5-.4.42-.72.03-.02c.25-.18.94-.65,1.09-.78.04-.03.22-.29.99-2l.03-.07c.08-.19.58-.53.86-.71l.26-.17v.11l1.69-2.64.56-1.49.57-1.62.25.38c.06-.59.12-1.74.16-2.8v-.3s.47.27.47.27c.04-.48,0-1.45-.05-2.04l-.03-.36.32.2-.16-1.3.48.16c-.19-.79-.12-.9-.08-.96.06-.1.23-.45.3-.57l.49-.98.12-.52c-.08,0-.15,0-.22,0-.08,0-.15,0-.23-.02-.08,0-.15-.01-.25-.05-.01,0-.02,0-.04-.02,0,0-.01,0-.02-.01h-.01s0,0,0,0l-.04-.05-.08-.08-.16-.17-.33-.34.38.26.19.13.1.07.05.03h.02c.05,0,.13,0,.2,0,.07,0,.15-.01.22-.03.13-.02.26-.05.38-.07l.88-.73.78-.6h1.18c-.06-.03-.13-.06-.19-.09-.09-.04-.19-.08-.28-.1h-.04s-.01,0-.02,0c-.03,0-.05,0-.08,0h-.15c-.1,0-.2,0-.3,0s-.2,0-.3.02l-.6.13-2.39.53-.06-.37,2.42-.35.6-.09c.11,0,.21,0,.31,0,.1,0,.2.02.3.03.05,0,.1,0,.15,0h.15c.11.03.19.08.29.13.08.04.15.09.23.14h0l-.23-.44-.95-.76h-2.87l-.7.96.41-1.09-.61-.54-.7-.23h-1.12s.07.05.1.07l.47.35h-1.72l-.64.62-1.16,1.06s-.25.19-.42.31c.05.04.11.09.18.13l.2.13-.18.18c-.11.11-.7.68-.82.77-.02.01-.07.08-.11.14-.07.09-.15.18-.23.27l-.36.27s.21.03.41.06c-.04.15-.15.3-.24.42l-.05.06-.16.35-.77,1.27-.17.18.22-.02-.53,1.1-1.2.26c-.06.05-.18.16-.33.28l1.2-.28h.02l1.48.04h.04s1.04.97,1.04.97l.78.61-.81-.56h0l-1.07-.87-1.45.04-2.15.63s-.04.01-.06.02h0c-.18.04-.6.54-.85.83-.26.31-.39.45-.49.5-.1.06-.57.61-.82.91-.28.34-.39.46-.44.5-.05.04-.4.38-.64.63-.39.39-.59.59-.67.65-.11.16-.68,1.35-1.17,2.41v.03s-5.21,5.44-5.21,5.44l.71.58-1.51,1.01.53.17.37.03,6.13-5.5-5.86,5.74.23.46,7.87-7.21-8.32,8.11c-.07.18-.33.38-.78.59l-.49.68c-.15.21-.89,1.27-1.03,1.41-.03.03-.06.18-.08.26-.04.18-.07.34-.18.42-.06.05-.34.26-.56.43.18.04.39.09.56.11.05,0,.09.03.13.06l8.71-7.96-8.74,8.48h0c-.08.14-.22.33-.42.6-.72.11-1.44.24-2.16.38-.56.11-1.13.23-1.69.36-.28.06-.56.13-.84.2-.14.03-.28.07-.42.11s-.28.07-.43.12l.3,1.21c.13-.04.26-.08.4-.12.14-.04.27-.08.41-.11.27-.07.55-.15.82-.21.55-.14,1.1-.27,1.65-.38.29-.06.58-.12.87-.18-.08.08-.12.14-.14.16l-.87,1.17.59-.18,1.48-1.37,1.47-1.36,7.12-6.57-6.69,6.51-1.35,1.32h0l-1.78,1.73c0,.08-.01.2,0,.31.1,0,.32-.03.53-.1l.36-.7h.82l1.32-1.08-3.01,6.34v.33c.3-.34.57-.66.62-.74.03-.1.11-.24.83-.17l3.24-6.36.57-1.11,1.15-2.25-1.05,2.24-.52,1.1h0l-3.13,6.66-.06.15h.53l.47-.87.76-.46,2.83-5.64.53-1.06,1.7-3.38-1.57,3.37-.49,1.05-2.48,5.34.04-.02-.38.74c.08,0,.15,0,.2.02.06,0,.3-.07.52-.18l.47-.7.31-.89.49-.22.28-.41v-.92l.28.17.28.17c.17-.18.53-.55.69-.71.14-.14.38-.85.53-1.44v-.77s0-.07.02-.1l.07-.21.34-1,.69-2.04-.47,2.03-.23.99-.04.15c.07.02.15.05.25.1l.09-.27c.33-.02.66-.04,1-.06l.85-.04c.28,0,.56-.02.85-.03h.42s.42-.01.42-.01h.85c.56,0,1.13,0,1.69.02.28,0,.56.01.85.03l.85.05c.06,0,.12,0,.19,0,.04.09.06.19.08.26.11.14.31.4.35.53.01.04.02.1.03.18.02-.06.04-.13.07-.18l.16-.45-.19-.3c.05,0,.11,0,.16.01.28.02.56.04.84.07l.54.06-.05.66.06-.05.13-.59.17.02c.14.01.28.03.42.05l.42.06.84.12.84.14.42.07c.14.02.28.05.41.08l.83.17c.14.02.28.06.41.09l.41.1.83.19.42.1.42.08c.28.06.57.09.86.14,1.14.14,2.3.16,3.45.02.78-.09,1.55-.26,2.31-.49h0c.75-.07,1.51-.13,2.26-.18.79-.05,1.58-.1,2.37-.13.79-.03,1.58-.05,2.38-.05.4,0,.79.01,1.19.04s.79.06,1.18.15c-.39-.1-.78-.15-1.18-.19-.4-.04-.79-.07-1.19-.08-.79-.03-1.59-.05-2.38-.04-.79,0-1.59.01-2.38.04-.36,0-.71.02-1.07.03,1.03-.43,2.02-.99,2.93-1.65.96-.69,1.85-1.49,2.67-2.37.82-.88,1.57-1.83,2.25-2.84.68-1,1.3-2.06,1.86-3.15.28-.54.54-1.1.79-1.67.25-.56.48-1.14.68-1.72-.21.58-.45,1.15-.71,1.71m-20.55-16.55c.24,0,.44.22.44.49s-.2.49-.44.49-.44-.22-.44-.49.2-.49.44-.49m-9.14,17.57l.31-.35.31-.35c.21-.23.41-.46.63-.69.21-.23.42-.45.63-.68.42-.46.84-.91,1.26-1.36.42-.44.84-.89,1.26-1.32l.17-.4.19-.43c.12-.29.25-.57.38-.86.13-.29.26-.57.39-.85.13-.28.26-.56.41-.84-.1.3-.19.6-.3.9-.1.3-.21.59-.31.89-.11.3-.21.59-.32.88l-.16.44-.17.44v.03s-.03.02-.03.02c-.41.46-.84.91-1.26,1.37-.21.22-.42.45-.64.68-.22.22-.42.45-.65.67-.22.22-.44.43-.66.65-.22.21-.44.43-.67.64l-.34.32-.34.31c-.23.21-.45.41-.69.61.2-.24.4-.48.6-.71m-4.23,4.1c.15-.09.29-.17.44-.25.15-.08.29-.16.43-.25.03-.02.07-.04.09-.06h.02s0-.02,0-.02h0s0,0,0,0l.02-.02.18-.18c.24-.24.5-.48.76-.71s.53-.44.82-.62c-.19.3-.41.57-.64.84-.23.26-.46.52-.7.76l-.19.18s-.1.09-.13.11c-.04.03-.08.05-.12.07-.16.08-.31.14-.47.2s-.32.11-.48.15c-.08.02-.16.04-.25.05-.08.01-.17.03-.25.02.15-.08.3-.17.44-.25m4.78,4.98c-.57-.04-1.14-.05-1.71-.07h-.86s-.43-.01-.43-.01h-.43c-.29,0-.57,0-.86,0l-.86.02c-.21,0-.42.01-.64.02l.69-2.07.25.45,1.24-2.25h.04l1.84-1.65-1.39,1.65h.35l.05.09c.07.13.29.53.35.69.06.06.31.21.56.33l.04.02,2.05,2.78s0,0,0,.02c-.1,0-.2,0-.3-.01m2.56.2c-.24-.02-.48-.05-.72-.07l-.18-.29.46.16s.38.13.63.23c-.07,0-.13-.01-.19-.02m2.26.75l-.26-.5-.63-.48-.72-.25-.65-.27c-.41.02-.92.03-1.04,0-.05-.01-.25,0-.44.02h-.08c-.15-.06-.66-.25-.78-.35-.07-.05-.15-.17-.3-.4-.14-.21-.34-.52-.45-.6-.24-.18-.93-1.28-1.07-1.51l-.55-.53.51.17v-1.15h1.38l.83-.57v.11l1.47-.3c.15-.23.3-.45.45-.68.08-.12.17-.23.26-.35.03-.03.05-.05.09-.08h.02s.02-.01.03-.02h0s0,0,.01,0c0,0,.01,0,.02-.01.05-.04.1-.09.15-.14.2-.19.39-.4.58-.61.19-.21.38-.42.57-.63-.18.22-.35.45-.53.67-.18.22-.36.44-.55.66-.05.05-.1.11-.15.16,0,0-.01.01-.02.02s-.02.01-.03.02h0s0,0-.01,0-.03,0-.03,0h.01s-.04.04-.06.06c-.08.11-.16.23-.23.35-.15.24-.29.5-.43.75l-.02.04h-.05s-1.56.46-1.56.46v.4l-.25.51.22.67.64.56.68.69.38.72.45.56.59.43.64.42.89.37v.61h.02Z"/>
      </g>
    </g>
  </g>
</svg>