<?xml version="1.0" encoding="utf-8"?>
<!-- Generator: Adobe Illustrator 27.4.1, SVG Export Plug-In . SVG Version: 6.00 Build 0)  -->
<svg version="1.1" id="Layer_1" xmlns="http://www.w3.org/2000/svg" xmlns:xlink="http://www.w3.org/1999/xlink" x="0px" y="0px"
	 viewBox="0 0 88.7 51.6" style="enable-background:new 0 0 88.7 51.6;" xml:space="preserve">
<style type="text/css">
	.st0{clip-path:url(#SVGID_00000010298490849104730810000008566732953941912496_);}
	.st1{fill:#FFFFFF;}
</style>
<g id="Artwork_1">
	<g>
		<defs>
			<rect id="SVGID_1_" x="-104.5" y="-34.2" width="289.1" height="129.5"/>
		</defs>
		<clipPath id="SVGID_00000146458566706505491170000008937174797504315820_">
			<use xlink:href="#SVGID_1_"  style="overflow:visible;"/>
		</clipPath>
		<g style="clip-path:url(#SVGID_00000146458566706505491170000008937174797504315820_);">
			<g>
				<path class="st1" d="M57.2,34.4c1-1,0.2-2.5,0.2-2.5S56.4,33.2,57.2,34.4"/>
				<path class="st1" d="M61.2,39.1c1.7-1,0.9-3.3,0.9-3.3S60.3,37.3,61.2,39.1"/>
				<path class="st1" d="M65,37.6c1.8,0.6,2.8-1.7,2.8-1.7S65.6,35.6,65,37.6"/>
				<path class="st1" d="M60.9,43c0.6,2,2.8,1.6,2.8,1.6S62.7,42.4,60.9,43"/>
				<path class="st1" d="M51,43.9c0.6,2,2.8,1.6,2.8,1.6S52.8,43.2,51,43.9"/>
				<path class="st1" d="M53.6,37.4c0.5-0.5,0.1-1.2,0.1-1.2S53.2,36.9,53.6,37.4"/>
				<path class="st1" d="M61.2,31.7c0,0-0.8-0.2-1,0.5C60.8,32.5,61.2,31.7,61.2,31.7"/>
				<path class="st1" d="M68.7,32.1c1.1,0.4,1.8-1,1.8-1S69.1,30.8,68.7,32.1"/>
				<path class="st1" d="M68.6,30.4c-0.3,0.6-0.5,1.1-0.8,1.6c-0.6,1.1-1.2,2.1-1.9,3.1c-0.7,1-1.5,1.9-2.3,2.8
					c-0.8,0.8-1.7,1.6-2.7,2.3c-1,0.7-2,1.2-3,1.6c-1.1,0.4-2.2,0.7-3.3,0.8c-1.1,0.1-2.2,0.1-3.3-0.1c-0.3,0-0.6-0.1-0.8-0.2
					l-0.3,0l0,0c0,0,0.1,0,0.1-0.1c0.3-0.2,0.5-0.4,0.8-0.5c0.5-0.4,1-0.8,1.5-1.2c1-0.8,2-1.7,2.8-2.6c0.5-0.5,0.9-1,1.3-1.5
					c0.4-0.5,0.8-1,1.2-1.6s0.7-1.1,1-1.7s0.6-1.2,0.8-1.8c-0.2,0.6-0.5,1.2-0.9,1.8c-0.3,0.6-0.7,1.1-1.1,1.6
					c-0.4,0.5-0.8,1-1.2,1.5c-0.4,0.5-0.9,0.9-1.3,1.4c-0.3,0.2-0.5,0.5-0.8,0.7c0-0.1,0-0.1,0.1-0.2c0.1-0.3,0.2-0.6,0.3-1
					c0.2-0.6,0.3-1.3,0.3-2c0-0.2,0-0.3,0-0.5c0-0.2,0-0.3,0-0.5s0-0.3,0-0.5c0-0.2,0-0.3,0-0.5c-0.1-0.7-0.3-1.3-0.5-1.9
					c0.2,0.6,0.4,1.3,0.4,1.9c0,0.2,0,0.3,0,0.5c0,0.2,0,0.3,0,0.5c0,0.2,0,0.3,0,0.5c0,0.2,0,0.3,0,0.5c-0.1,0.7-0.2,1.3-0.4,1.9
					c-0.1,0.3-0.2,0.6-0.3,0.9c-0.1,0.2-0.1,0.3-0.2,0.5c0,0.1-0.1,0.2-0.1,0.3c-0.5,0.4-1,0.8-1.6,1.2c-0.5,0.4-1,0.7-1.5,1.1
					c-0.3,0.2-0.5,0.3-0.8,0.5c-0.1,0.1-0.3,0.2-0.4,0.2c-0.1,0.1-0.3,0.2-0.4,0.2l-0.4-0.1l-0.4-0.1c-0.1,0-0.3-0.1-0.4-0.1
					l-0.8-0.2c-0.1,0-0.3-0.1-0.4-0.1l-0.4-0.1l-0.8-0.2h0l-0.3-0.4l-0.2-0.3h-0.8L43.4,40l-2.3-2.6l0,0l-0.5-0.6l0.6,0.3l0.2-0.7
					l0.4-1.3h0.6l0.5-0.4l0.4-0.7l0,0c0.2-0.2,0.9-0.7,1.1-0.8c0,0,0.2-0.3,1-2l0-0.1c0.1-0.2,0.6-0.5,0.9-0.7l0.3-0.2v0.1l1.7-2.6
					l0.6-1.5l0.6-1.6l0.2,0.4c0.1-0.6,0.1-1.7,0.2-2.8v-0.3l0.5,0.3c0-0.5,0-1.5,0-2l0-0.4l0.3,0.2l-0.2-1.3l0.5,0.2
					c-0.2-0.8-0.1-0.9-0.1-1c0.1-0.1,0.2-0.5,0.3-0.6l0.5-1l0.1-0.5c-0.1,0-0.2,0-0.2,0c-0.1,0-0.2,0-0.2,0c-0.1,0-0.2,0-0.2-0.1
					c0,0,0,0,0,0c0,0,0,0,0,0h0l0,0l0-0.1l-0.1-0.1l-0.2-0.2L50.2,15l0.4,0.3l0.2,0.1l0.1,0.1l0,0h0c0,0,0.1,0,0.2,0s0.2,0,0.2,0
					c0.1,0,0.3-0.1,0.4-0.1l0.9-0.7l0.8-0.6h1.2c-0.1,0-0.1-0.1-0.2-0.1c-0.1,0-0.2-0.1-0.3-0.1h0c0,0,0,0,0,0c0,0,0,0-0.1,0h-0.2
					c-0.1,0-0.2,0-0.3,0s-0.2,0-0.3,0L52.6,14l-2.4,0.5l-0.1-0.4l2.4-0.4l0.6-0.1c0.1,0,0.2,0,0.3,0c0.1,0,0.2,0,0.3,0
					c0,0,0.1,0,0.2,0h0.2c0.1,0,0.2,0.1,0.3,0.1c0.1,0,0.2,0.1,0.2,0.1l0,0l-0.2-0.4l-1-0.8h-2.9l-0.7,1l0.4-1.1l-0.6-0.5L49,11.9
					h-1.1c0,0,0.1,0.1,0.1,0.1l0.5,0.4h-1.7L46,13L44.9,14c0,0-0.2,0.2-0.4,0.3c0,0,0.1,0.1,0.2,0.1l0.2,0.1l-0.2,0.2
					c-0.1,0.1-0.7,0.7-0.8,0.8c0,0-0.1,0.1-0.1,0.1c-0.1,0.1-0.2,0.2-0.2,0.3l-0.4,0.3c0,0,0.2,0,0.4,0.1c0,0.1-0.2,0.3-0.2,0.4
					l0,0.1l-0.2,0.4l-0.8,1.3l-0.2,0.2l0.2,0l-0.5,1.1l-1.2,0.3c-0.1,0-0.2,0.2-0.3,0.3l1.2-0.3h0l1.5,0h0l1,1l0.8,0.6L44.1,21l0,0
					L43,20.1l-1.5,0l-2.2,0.6c0,0,0,0-0.1,0l0,0c-0.2,0-0.6,0.5-0.8,0.8c-0.3,0.3-0.4,0.5-0.5,0.5c-0.1,0.1-0.6,0.6-0.8,0.9
					c-0.3,0.3-0.4,0.5-0.4,0.5s-0.4,0.4-0.6,0.6c-0.4,0.4-0.6,0.6-0.7,0.6c-0.1,0.2-0.7,1.4-1.2,2.4v0l-5.2,5.4l0.7,0.6l-1.5,1
					l0.5,0.2l0.4,0l6.1-5.5l-5.9,5.7l0.2,0.5l7.9-7.2l-8.3,8.1c-0.1,0.2-0.3,0.4-0.8,0.6l-0.5,0.7c-0.1,0.2-0.9,1.3-1,1.4
					c0,0-0.1,0.2-0.1,0.3c0,0.2-0.1,0.3-0.2,0.4c-0.1,0-0.3,0.3-0.6,0.4c0.2,0,0.4,0.1,0.6,0.1c0,0,0.1,0,0.1,0.1l8.7-8l-8.7,8.5
					l0,0c-0.1,0.1-0.2,0.3-0.4,0.6c-0.7,0.1-1.4,0.2-2.2,0.4c-0.6,0.1-1.1,0.2-1.7,0.4c-0.3,0.1-0.6,0.1-0.8,0.2
					c-0.1,0-0.3,0.1-0.4,0.1s-0.3,0.1-0.4,0.1l0.3,1.2c0.1,0,0.3-0.1,0.4-0.1c0.1,0,0.3-0.1,0.4-0.1c0.3-0.1,0.5-0.2,0.8-0.2
					c0.5-0.1,1.1-0.3,1.6-0.4c0.3-0.1,0.6-0.1,0.9-0.2c-0.1,0.1-0.1,0.1-0.1,0.2l-0.9,1.2l0.6-0.2l1.5-1.4l1.5-1.4l7.1-6.6l-6.7,6.5
					l-1.4,1.3l0,0L25.1,44c0,0.1,0,0.2,0,0.3c0.1,0,0.3,0,0.5-0.1l0.4-0.7h0.8l1.3-1.1l-3,6.3v0.3c0.3-0.3,0.6-0.7,0.6-0.7
					c0-0.1,0.1-0.2,0.8-0.2l3.2-6.4l0.6-1.1l1.1-2.2l-1,2.2l-0.5,1.1l0,0l-3.1,6.7l-0.1,0.2h0.5l0.5-0.9l0.8-0.5l2.8-5.6l0.5-1.1
					l1.7-3.4L32,40.5l-0.5,1L29,46.9l0,0l-0.4,0.7c0.1,0,0.1,0,0.2,0c0.1,0,0.3-0.1,0.5-0.2l0.5-0.7l0.3-0.9l0.5-0.2l0.3-0.4v-0.9
					l0.3,0.2l0.3,0.2c0.2-0.2,0.5-0.5,0.7-0.7c0.1-0.1,0.4-0.8,0.5-1.4v-0.8c0,0,0-0.1,0-0.1l0.1-0.2l0.3-1l0.7-2l-0.5,2l-0.2,1
					l0,0.2c0.1,0,0.2,0,0.2,0.1l0.1-0.3c0.3,0,0.7,0,1-0.1l0.8,0c0.3,0,0.6,0,0.8,0h0.4l0.4,0h0.8c0.6,0,1.1,0,1.7,0
					c0.3,0,0.6,0,0.8,0l0.8,0c0.1,0,0.1,0,0.2,0c0,0.1,0.1,0.2,0.1,0.3c0.1,0.1,0.3,0.4,0.3,0.5c0,0,0,0.1,0,0.2
					c0-0.1,0-0.1,0.1-0.2l0.2-0.5l-0.2-0.3c0,0,0.1,0,0.2,0c0.3,0,0.6,0,0.8,0.1l0.5,0.1l0,0.7l0.1,0l0.1-0.6l0.2,0
					c0.1,0,0.3,0,0.4,0l0.4,0.1l0.8,0.1l0.8,0.1l0.4,0.1c0.1,0,0.3,0,0.4,0.1l0.8,0.2c0.1,0,0.3,0.1,0.4,0.1l0.4,0.1l0.8,0.2
					l0.4,0.1l0.4,0.1c0.3,0.1,0.6,0.1,0.9,0.1c1.1,0.1,2.3,0.2,3.5,0c0.8-0.1,1.5-0.3,2.3-0.5l0,0c0.8-0.1,1.5-0.1,2.3-0.2
					c0.8,0,1.6-0.1,2.4-0.1c0.8,0,1.6,0,2.4,0c0.4,0,0.8,0,1.2,0s0.8,0.1,1.2,0.2c-0.4-0.1-0.8-0.2-1.2-0.2c-0.4,0-0.8-0.1-1.2-0.1
					c-0.8,0-1.6,0-2.4,0c-0.8,0-1.6,0-2.4,0c-0.4,0-0.7,0-1.1,0c1-0.4,2-1,2.9-1.7c1-0.7,1.8-1.5,2.7-2.4c0.8-0.9,1.6-1.8,2.2-2.8
					c0.7-1,1.3-2.1,1.9-3.2C68.2,31.5,68.5,31,68.6,30.4c0.3-0.5,0.6-1.1,0.8-1.7C69.2,29.3,69,29.9,68.6,30.4 M48.2,13.9
					c0.2,0,0.4,0.2,0.4,0.5s-0.2,0.5-0.4,0.5s-0.4-0.2-0.4-0.5S47.9,13.9,48.2,13.9 M39,31.4l0.3-0.4l0.3-0.4
					c0.2-0.2,0.4-0.5,0.6-0.7c0.2-0.2,0.4-0.5,0.6-0.7c0.4-0.5,0.8-0.9,1.3-1.4c0.4-0.4,0.8-0.9,1.3-1.3l0.2-0.4l0.2-0.4
					c0.1-0.3,0.2-0.6,0.4-0.9s0.3-0.6,0.4-0.9s0.3-0.6,0.4-0.8c-0.1,0.3-0.2,0.6-0.3,0.9c-0.1,0.3-0.2,0.6-0.3,0.9
					c-0.1,0.3-0.2,0.6-0.3,0.9l-0.2,0.4l-0.2,0.4v0l0,0c-0.4,0.5-0.8,0.9-1.3,1.4c-0.2,0.2-0.4,0.5-0.6,0.7
					c-0.2,0.2-0.4,0.5-0.7,0.7c-0.2,0.2-0.4,0.4-0.7,0.6c-0.2,0.2-0.4,0.4-0.7,0.6l-0.3,0.3l-0.3,0.3c-0.2,0.2-0.5,0.4-0.7,0.6
					C38.6,31.9,38.8,31.7,39,31.4 M34.8,35.5c0.2-0.1,0.3-0.2,0.4-0.2c0.2-0.1,0.3-0.2,0.4-0.2c0,0,0.1,0,0.1-0.1h0v0l0,0l0,0l0,0
					l0.2-0.2c0.2-0.2,0.5-0.5,0.8-0.7s0.5-0.4,0.8-0.6c-0.2,0.3-0.4,0.6-0.6,0.8c-0.2,0.3-0.5,0.5-0.7,0.8L36,35.2
					c0,0-0.1,0.1-0.1,0.1c0,0-0.1,0-0.1,0.1c-0.2,0.1-0.3,0.1-0.5,0.2s-0.3,0.1-0.5,0.2c-0.1,0-0.2,0-0.2,0c-0.1,0-0.2,0-0.2,0
					C34.5,35.7,34.6,35.6,34.8,35.5 M39.5,40.5c-0.6,0-1.1,0-1.7-0.1H37l-0.4,0h-0.4c-0.3,0-0.6,0-0.9,0l-0.9,0c-0.2,0-0.4,0-0.6,0
					l0.7-2.1l0.2,0.5l1.2-2.2h0l1.8-1.7l-1.4,1.7h0.3l0,0.1c0.1,0.1,0.3,0.5,0.3,0.7c0.1,0.1,0.3,0.2,0.6,0.3l0,0l2,2.8c0,0,0,0,0,0
					C39.7,40.6,39.6,40.6,39.5,40.5 M42.1,40.8c-0.2,0-0.5,0-0.7-0.1l-0.2-0.3l0.5,0.2c0,0,0.4,0.1,0.6,0.2
					C42.2,40.8,42.1,40.8,42.1,40.8 M44.3,41.5L44.1,41l-0.6-0.5l-0.7-0.2L42.1,40c-0.4,0-0.9,0-1,0c0,0-0.2,0-0.4,0h-0.1
					c-0.2-0.1-0.7-0.2-0.8-0.3c-0.1,0-0.2-0.2-0.3-0.4c-0.1-0.2-0.3-0.5-0.5-0.6c-0.2-0.2-0.9-1.3-1.1-1.5l-0.5-0.5l0.5,0.2v-1.2
					h1.4l0.8-0.6v0.1l1.5-0.3c0.2-0.2,0.3-0.5,0.5-0.7c0.1-0.1,0.2-0.2,0.3-0.3c0,0,0,0,0.1-0.1h0c0,0,0,0,0,0l0,0c0,0,0,0,0,0
					c0,0,0,0,0,0c0,0,0.1-0.1,0.2-0.1c0.2-0.2,0.4-0.4,0.6-0.6c0.2-0.2,0.4-0.4,0.6-0.6c-0.2,0.2-0.3,0.5-0.5,0.7
					c-0.2,0.2-0.4,0.4-0.5,0.7c0,0-0.1,0.1-0.2,0.2c0,0,0,0,0,0s0,0,0,0l0,0c0,0,0,0,0,0s0,0,0,0h0c0,0,0,0-0.1,0.1
					c-0.1,0.1-0.2,0.2-0.2,0.3c-0.2,0.2-0.3,0.5-0.4,0.8l0,0h0l-1.6,0.5V36l-0.2,0.5l0.2,0.7l0.6,0.6l0.7,0.7l0.4,0.7l0.5,0.6
					l0.6,0.4l0.6,0.4l0.9,0.4L44.3,41.5C44.3,41.5,44.3,41.5,44.3,41.5z"/>
			</g>
		</g>
	</g>
</g>
</svg>
